# WaveFront *.obj file (generated by CINEMA 4D)

mtllib ./log(1).mtl

v 64.70717620849609 9.00475883483887 -41.94973373413086
v 143.05287170410156 -1.30795478820801 -51.71177673339844
v 82.39509582519531 -30.27054786682129 7.0343713760376
v 149.82734680175781 -16.35039710998535 -32.95086669921875
v 88.99638366699219 -83.28388977050781 -37.85525512695312
v 152.35565185546875 -36.65450668334961 -50.14359283447266
v 71.30845642089844 -44.00858306884766 -86.83936309814453
v 145.5811767578125 -21.61206436157227 -68.90450286865234
# 8 vertices

vn 0.17682600021362 0.7980682849884 0.57603776454926
vn 0.51310646533966 -0.51655244827271 0.68548905849457
vn 0.35849517583847 -0.66087424755096 -0.65933787822723
vn -0.01020456105471 0.6454381942749 -0.76374435424805
vn 0.95787239074707 0.24548704922199 -0.1490523070097
vn -0.95787239074707 -0.24548704922199 0.1490523070097
# 6 normals

vt 0 0 0
vt 0 1 0
vt 1 1 0
vt 1 0 0
# 4 texture coordinates

g 큐브.3
usemtl 재질
f 3/4/1 4/3/1 2/2/1 1/1/1
f 5/4/2 6/3/2 4/2/2 3/1/2
f 7/4/3 8/3/3 6/2/3 5/1/3
f 1/4/4 2/3/4 8/2/4 7/1/4
f 4/4/5 6/3/5 8/2/5 2/1/5
f 5/4/6 3/3/6 1/2/6 7/1/6

v -40.39456939697266 1.2025990486145 -0.53789776563644
v -159.58650207519531 59.09020233154297 -12.87789821624756
v -29.2053394317627 29.03784942626953 -0.53789776563644
v -155.301025390625 69.7510986328125 -12.87789821624756
v -29.2053394317627 29.03784942626953 -40.53789901733398
v -155.301025390625 69.7510986328125 -28.19789695739746
v -40.39456939697266 1.2025990486145 -40.53789901733398
v -159.58650207519531 59.09020233154297 -28.19789695739746
# 8 vertices

vn -0.08624479174614 0.03466876223683 0.99567055702209
vn 0.30725720524788 0.95162653923035 0
vn -0.08624482899904 0.03466876596212 -0.99567055702209
vn -0.43686965107918 -0.89952480792999 0
vn -0.9278416633606 0.37297430634499 0
vn 0.9278416633606 -0.37297430634499 0
# 6 normals

# 0 texture coordinate

g 큐브.2
usemtl 재질
f 11/4/7 12/3/7 10/2/7 9/1/7
f 13/4/8 14/3/8 12/2/8 11/1/8
f 15/4/9 16/3/9 14/2/9 13/1/9
f 9/4/10 10/3/10 16/2/10 15/1/10
f 12/4/11 14/3/11 16/2/11 10/1/11
f 13/4/12 11/3/12 9/2/12 15/1/12

v -7.5 -7.5 95.5
v -7.5 7.5 95.5
v 7.5 -7.5 95.5
v 7.5 7.5 95.5
v 7.5 -7.5 -95.5
v 7.5 7.5 -95.5
v -7.5 -7.5 -95.5
v -7.5 7.5 -95.5
# 8 vertices

vn 0 0 1
vn 1 0 0
vn 0 0 -1
vn -1 0 0
vn 0 1 0
vn 0 -1 0
# 6 normals

# 0 texture coordinate

g 큐브.1
usemtl 재질_1
f 19/4/13 20/3/13 18/2/13 17/1/13
f 21/4/14 22/3/14 20/2/14 19/1/14
f 23/4/15 24/3/15 22/2/15 21/1/15
f 17/4/16 18/3/16 24/2/16 23/1/16
f 20/4/17 22/3/17 24/2/17 18/1/17
f 21/4/18 19/3/18 17/2/18 23/1/18

v -10 -10 95.5
v -10 10 95.5
v 10 -10 95.5
v 10 10 95.5
v 10 -10 -95.5
v 10 10 -95.5
v -10 -10 -95.5
v -10 10 -95.5
v 9.5 9.5 95.5
v 9.5 -9.5 -95.5
v -9.5 -9.5 95.5
v -9.5 9.5 -95.5
v -9.5 9.5 95.5
v 9.5 9.5 -95.5
v 9.5 -9.5 95.5
v -9.5 -9.5 -95.5
# 16 vertices

vn 0 0 0
# 1 normal

vt 0.02500000037253 0.02499997615814 0
vt 0.97500002384186 0.02499997615814 0
vt 0.02500000037253 0.97500002384186 0
vt 0.97500002384186 0.97500002384186 0
# 4 texture coordinates

g 큐브.1_1
usemtl 재질_1
f 39/6/13 35/5/13 25/1/13 27/4/13
f 26/2/13 25/1/13 35/5/13 37/7/13
f 28/3/13 26/2/13 37/7/13 33/8/13
f 33/8/13 39/6/13 27/4/13 28/3/13
f 29/4/14 30/3/14 28/2/14 27/1/14
f 36/8/15 31/4/15 32/3/15
f 31/4/15 36/8/15 40/6/15
f 30/2/15 38/7/15 36/8/15 32/3/15
f 29/1/15 31/4/15 40/6/15 34/5/15
f 29/1/15 34/5/15 38/7/15 30/2/15
f 25/4/16 26/3/16 32/2/16 31/1/16
f 28/4/17 30/3/17 32/2/17 26/1/17
f 29/4/18 27/3/18 25/2/18 31/1/18

# 0 vertex

# 0 normal

vt 0.00260416674428 0 0
vt 0.99739581346512 0 0
vt 0.99739581346512 1 0
vt 0.00260416674428 1 0
vt 0 0.99739581346512 0
vt 0 0.00260424613953 0
vt 1 0.00260424613953 0
vt 1 0.99739581346512 0
# 8 texture coordinates

g 큐브.2_1
usemtl 재질_1
f 33/12/16 38/11/16 34/10/16 39/9/16
f 36/12/14 37/11/14 35/10/14 40/9/14
f 38/16/18 33/15/18 37/14/18 36/13/18
f 40/14/17 35/13/17 39/16/17 34/15/17

v -15 -15 95.5
v -15 15 95.5
v 15 -15 95.5
v 15 15 95.5
v 15 -15 -95.5
v 15 15 -95.5
v -15 -15 -95.5
v -15 15 -95.5
v 14 14 95.5
v 14 -14 -95.5
v -14 -14 95.5
v -14 14 -95.5
v -14 14 95.5
v 14 14 -95.5
v 14 -14 95.5
v -14 -14 -95.5
# 16 vertices

# 0 normal

vt 0.0333333350718 0.96666669845581 0
vt 0.0333333350718 0.03333342075348 0
vt 0.96666663885117 0.03333342075348 0
vt 0.96666663885117 0.96666669845581 0
# 4 texture coordinates

g 큐브.1_2
usemtl 재질_1
f 42/2/13 41/1/13 51/18/13 53/17/13
f 55/19/13 51/18/13 41/1/13 43/4/13
f 44/3/13 42/2/13 53/17/13 49/20/13
f 49/20/13 55/19/13 43/4/13 44/3/13
f 45/4/14 46/3/14 44/2/14 43/1/14
f 47/4/15 52/20/15 56/19/15
f 52/20/15 47/4/15 48/3/15
f 45/1/15 47/4/15 56/19/15 50/18/15
f 54/17/15 52/20/15 48/3/15 46/2/15
f 46/2/15 45/1/15 50/18/15 54/17/15
f 41/4/16 42/3/16 48/2/16 47/1/16
f 44/4/17 46/3/17 48/2/17 42/1/17
f 45/4/18 43/3/18 41/2/18 47/1/18

# 0 vertex

# 0 normal

# 0 texture coordinate

g 큐브.2_2
usemtl 재질_1
f 49/12/16 54/11/16 50/10/16 55/9/16
f 52/12/14 53/11/14 51/10/14 56/9/14
f 54/16/18 49/15/18 53/14/18 52/13/18
f 56/14/17 51/13/17 55/16/17 50/15/17

v -20 -20 95.5
v -20 20 95.5
v 20 -20 95.5
v 20 20 95.5
v 20 -20 -95.5
v 20 20 -95.5
v -20 -20 -95.5
v -20 20 -95.5
v 18.5 18.5 95.5
v 18.5 -18.5 -95.5
v -18.5 -18.5 95.5
v -18.5 18.5 -95.5
v -18.5 18.5 95.5
v 18.5 18.5 -95.5
v 18.5 -18.5 95.5
v -18.5 -18.5 -95.5
# 16 vertices

# 0 normal

vt 0.03750000149012 0.03750002384186 0
vt 0.96249997615814 0.03750002384186 0
vt 0.03750000149012 0.96249997615814 0
vt 0.96249997615814 0.96249997615814 0
# 4 texture coordinates

g 큐브.1_3
usemtl 재질_1
f 71/22/13 67/21/13 57/1/13 59/4/13
f 58/2/13 57/1/13 67/21/13 69/23/13
f 65/24/13 60/3/13 58/2/13 69/23/13
f 60/3/13 65/24/13 71/22/13 59/4/13
f 61/4/14 62/3/14 60/2/14 59/1/14
f 68/24/15 63/4/15 64/3/15
f 63/4/15 68/24/15 72/22/15
f 62/2/15 70/23/15 68/24/15 64/3/15
f 61/1/15 63/4/15 72/22/15 66/21/15
f 66/21/15 70/23/15 62/2/15 61/1/15
f 57/4/16 58/3/16 64/2/16 63/1/16
f 60/4/17 62/3/17 64/2/17 58/1/17
f 61/4/18 59/3/18 57/2/18 63/1/18

# 0 vertex

# 0 normal

# 0 texture coordinate

g 큐브.2_3
usemtl 재질_1
f 65/12/16 70/11/16 66/10/16 71/9/16
f 68/12/14 69/11/14 67/10/14 72/9/14
f 70/16/18 65/15/18 69/14/18 68/13/18
f 72/14/17 67/13/17 71/16/17 66/15/17

v -30 -30 95.5
v -30 30 95.5
v 30 -30 95.5
v 30 30 95.5
v 30 -30 -95.5
v 30 30 -95.5
v -30 -30 -95.5
v -30 30 -95.5
v 28.5 28.5 95.5
v 28.5 -28.5 -95.5
v -28.5 -28.5 95.5
v -28.5 28.5 -95.5
v -28.5 28.5 95.5
v 28.5 28.5 -95.5
v 28.5 -28.5 95.5
v -28.5 -28.5 -95.5
# 16 vertices

# 0 normal

# 0 texture coordinate

g 큐브.1_4
usemtl 재질_1
f 75/4/13 87/6/13 83/5/13 73/1/13
f 74/2/13 73/1/13 83/5/13 85/7/13
f 76/3/13 74/2/13 85/7/13 81/8/13
f 81/8/13 87/6/13 75/4/13 76/3/13
f 77/4/14 78/3/14 76/2/14 75/1/14
f 84/8/15 79/4/15 80/3/15
f 79/4/15 84/8/15 88/6/15
f 77/1/15 79/4/15 88/6/15 82/5/15
f 86/7/15 84/8/15 80/3/15 78/2/15
f 77/1/15 82/5/15 86/7/15 78/2/15
f 73/4/16 74/3/16 80/2/16 79/1/16
f 76/4/17 78/3/17 80/2/17 74/1/17
f 77/4/18 75/3/18 73/2/18 79/1/18

# 0 vertex

# 0 normal

# 0 texture coordinate

g 큐브.2_4
usemtl 재질_1
f 81/12/16 86/11/16 82/10/16 87/9/16
f 84/12/14 85/11/14 83/10/14 88/9/14
f 86/16/18 81/15/18 85/14/18 84/13/18
f 88/14/17 83/13/17 87/16/17 82/15/17

v -50 -50 95.5
v -50 50 95.5
v 50 -50 95.5
v 50 50 95.5
v 50 -50 -95.5
v 50 50 -95.5
v -50 -50 -95.5
v -50 50 -95.5
v 47.5 47.5 95.5
v 47.5 -47.5 -95.5
v -47.5 -47.5 95.5
v -47.5 47.5 -95.5
v -47.5 47.5 95.5
v 47.5 47.5 -95.5
v 47.5 -47.5 95.5
v -47.5 -47.5 -95.5
# 16 vertices

# 0 normal

# 0 texture coordinate

g 큐브.1_5
usemtl 재질_1
f 91/4/13 103/6/13 99/5/13 89/1/13
f 101/7/13 90/2/13 89/1/13 99/5/13
f 97/8/13 92/3/13 90/2/13 101/7/13
f 97/8/13 103/6/13 91/4/13 92/3/13
f 93/4/14 94/3/14 92/2/14 91/1/14
f 95/4/15 100/8/15 104/6/15
f 100/8/15 95/4/15 96/3/15
f 94/2/15 102/7/15 100/8/15 96/3/15
f 98/5/15 93/1/15 95/4/15 104/6/15
f 93/1/15 98/5/15 102/7/15 94/2/15
f 89/4/16 90/3/16 96/2/16 95/1/16
f 92/4/17 94/3/17 96/2/17 90/1/17
f 93/4/18 91/3/18 89/2/18 95/1/18

# 0 vertex

# 0 normal

# 0 texture coordinate

g 큐브.2_5
usemtl 재질_1
f 97/12/16 102/11/16 98/10/16 103/9/16
f 100/12/14 101/11/14 99/10/14 104/9/14
f 102/16/18 97/15/18 101/14/18 100/13/18
f 104/14/17 99/13/17 103/16/17 98/15/17

v -70 -70 95.5
v -70 70 95.5
v 70 -70 95.5
v 70 70 95.5
v 70 -70 -95.5
v 70 70 -95.5
v -70 -70 -95.5
v -70 70 -95.5
v 67.5 67.5 95.5
v 67.5 -67.5 -95.5
v -67.5 -67.5 95.5
v -67.5 67.5 -95.5
v -67.5 67.5 95.5
v 67.5 67.5 -95.5
v 67.5 -67.5 95.5
v -67.5 -67.5 -95.5
# 16 vertices

# 0 normal

vt 0.01785714365542 0.01785719394684 0
vt 0.98214286565781 0.01785719394684 0
vt 0.01785714365542 0.98214286565781 0
vt 0.98214286565781 0.98214286565781 0
# 4 texture coordinates

g 큐브.1_6
usemtl 재질_1
f 107/4/13 119/26/13 115/25/13 105/1/13
f 106/2/13 105/1/13 115/25/13 117/27/13
f 108/3/13 106/2/13 117/27/13 113/28/13
f 113/28/13 119/26/13 107/4/13 108/3/13
f 109/4/14 110/3/14 108/2/14 107/1/14
f 111/4/15 116/28/15 120/26/15
f 116/28/15 111/4/15 112/3/15
f 118/27/15 116/28/15 112/3/15 110/2/15
f 114/25/15 109/1/15 111/4/15 120/26/15
f 109/1/15 114/25/15 118/27/15 110/2/15
f 105/4/16 106/3/16 112/2/16 111/1/16
f 108/4/17 110/3/17 112/2/17 106/1/17
f 109/4/18 107/3/18 105/2/18 111/1/18

# 0 vertex

# 0 normal

# 0 texture coordinate

g 큐브.2_6
usemtl 재질_1
f 113/12/16 118/11/16 114/10/16 119/9/16
f 116/12/14 117/11/14 115/10/14 120/9/14
f 118/16/18 113/15/18 117/14/18 116/13/18
f 120/14/17 115/13/17 119/16/17 114/15/17

v -90 -90 95
v -90 90 95
v 90 -90 95
v 90 90 95
v 90 -90 -95
v 90 90 -95
v -90 -90 -95
v -90 90 -95
# 8 vertices

# 0 normal

# 0 texture coordinate

g 큐브
usemtl 재질.1
f 123/4/13 124/3/13 122/2/13 121/1/13
f 125/4/14 126/3/14 124/2/14 123/1/14
f 127/4/15 128/3/15 126/2/15 125/1/15
f 121/4/16 122/3/16 128/2/16 127/1/16
f 124/4/17 126/3/17 128/2/17 122/1/17
f 125/4/18 123/3/18 121/2/18 127/1/18

v -100 -100 100
v -100 100 100
v 100 -100 100
v 100 100 100
v 100 -100 -100
v 100 100 -100
v -100 -100 -100
v -100 100 -100
v 90 90 100
v -90 -90 100
v -90 90 -100
v 90 -90 -100
v -90 90 100
v 90 -90 100
v 90 90 -100
v -90 -90 -100
v 100 100 47.0692138671875
v -100 100 -8.43484973907471
v 100 100 55.58683395385742
v -50.76363372802734 -100 -100
v -100 100 -39.96151351928711
v -42.84416961669922 -100 -100
v -100 100 -46.71972274780273
v -100 100 2.00610971450806
v 100 89.75357055664062 47.0692138671875
v -100 85.08209228515625 2.00610971450806
v -50.76363372802734 -91.75440216064453 -100
v 100 89.75357055664062 55.58683395385742
v -100 95.24853515625 -39.96151351928711
v -42.84416961669922 -91.75440216064453 -100
v -100 95.24853515625 -46.71972274780273
v -61.87261581420898 100 -6.02239227294922
v -61.87615203857422 100 -6.07084941864014
v -100 85.08209228515625 -8.43484973907471
v -76.83708953857422 100 -37.2191276550293
v -76.82494354248047 100 -37.26617431640625
v 73.70029449462891 100 39.8120002746582
v 73.68119812011719 100 39.8566780090332
v -34.85544204711914 -100 -77.09382629394531
v -34.81217575073242 -100 -77.11592864990234
# 40 vertices

# 0 normal

vt 0.05000000074506 0.94999998807907 0
vt 0.05000000074506 0.05000007152557 0
vt 0 0 0
vt 0.94999998807907 0.05000007152557 0
vt 0.94999998807907 0.94999998807907 0
vt 0 1 0
vt 0.22206582129002 0.94876784086227 0
vt 0.26465392112732 0.94876784086227 0
vt 0.22206582129002 1 0
vt 0.26465395092964 1 0
vt 0.71422082185745 0.04122805595398 0
vt 0.71422082185745 0 0
vt 0.75381815433502 0 0
vt 0.75381815433502 0.04122805595398 0
vt 0.51003056764603 0.9254105091095 0
vt 0.51003056764603 1 0
vt 0.30019241571426 0.97624266147614 0
vt 0.30019244551659 1 0
vt 0.45782575011253 1 0
vt 0.45782575011253 0.9254105091095 0
vt 0.26640138030052 1 0
vt 0.26640138030052 0.97624266147614 0
vt 1 0.22206580638886 0
vt 0.19061924517155 0.53035426139832 0
vt 0 0.54217427968979 0
vt 0 0.69980758428574 0
vt 0.11581456661224 0.68609565496445 0
vt 1 0.26465392112732 0
vt 0.86850148439407 0.30094003677368 0
vt 0.11587527394295 0.68633085489273 0
vt 0 0.48996949195862 0
vt 0.19063691794872 0.5301119685173 0
vt 0 0.7335986495018 0
vt 0.86840599775314 0.30071663856506 0
vt 0.32572278380394 0.11453092098236 0
vt 0.28577914834023 0 0
vt 0.32593911886215 0.11442041397095 0
vt 0.24618183076382 0 0
# 38 texture coordinates

g 큐브_1
usemtl 재질
f 130/2/13 129/31/13 138/30/13 141/29/13
f 142/32/13 138/30/13 129/1/13 131/4/13
f 132/3/13 130/34/13 141/29/13 137/33/13
f 137/33/13 142/32/13 131/4/13 132/3/13
f 153/36/14 156/35/14 131/1/14 133/4/14
f 131/1/14 156/35/14 147/37/14 132/2/14
f 133/4/14 134/3/14 145/38/14 153/36/14
f 135/4/15 139/33/15 144/32/15
f 139/33/15 135/4/15 136/3/15
f 134/2/15 143/29/15 139/33/15 136/3/15
f 140/30/15 133/1/15 150/40/15 158/39/15
f 155/42/15 148/41/15 135/4/15 144/32/15
f 155/42/15 144/32/15 140/30/15 158/39/15
f 133/1/15 140/30/15 143/29/15 134/2/15
f 129/4/16 130/3/16 152/44/16 154/43/16
f 162/48/16 146/47/16 149/46/16 157/45/16
f 162/48/16 135/1/16 129/4/16 154/43/16
f 135/1/16 159/50/16 151/49/16 136/2/16
f 157/45/16 159/50/16 135/1/16
f 162/48/16 157/45/16 135/1/16
f 130/1/17 132/4/17 147/51/17
f 163/55/17 149/54/17 146/53/17 161/52/17
f 164/58/17 165/57/17 145/56/17 134/3/17
f 160/60/17 152/59/17 130/1/17 147/51/17
f 134/3/17 136/2/17 151/61/17 164/58/17
f 161/52/17 160/60/17 147/51/17
f 163/55/17 166/62/17 165/57/17 164/58/17
f 166/62/17 163/55/17 161/52/17 147/51/17
f 167/63/18 131/3/18 129/2/18
f 131/3/18 168/65/18 150/64/18 133/4/18
f 129/2/18 135/1/18 148/66/18 167/63/18
f 168/65/18 131/3/18 167/63/18

v -90 90 -0.09959527850151
v 90 90 44.30978775024414
v 90 90 49.61006164550781
v -90 90 -7.81476545333862
v 90 89.75357055664062 49.61006164550781
v 90 89.75357055664062 44.30978775024414
v -90 85.08209228515625 -0.09959527850151
v -90 85.08209228515625 -7.81476545333862
v -61.87261581420898 90 -6.02239227294922
v -61.87615203857422 90 -6.07084941864014
v 73.70029449462891 90 39.81200408935547
v 73.68119812011719 90 39.8566780090332
# 12 vertices

# 0 normal

vt 0.32851785421371 1 0
vt 0.15433995425701 1 0
vt 0.32851785421371 0.99863094091415 0
vt 0.15433995425701 0 0
vt 0.84566003084183 0 0
vt 0.34683877229691 0.99863094091415 0
vt 0.84566003084183 1 0
vt 0.34683877229691 1 0
vt 0.47298747301102 0.97267830371857 0
vt 0.47298747301102 1 0
vt 0.49965572357178 1 0
vt 0.49965572357178 0.97267830371857 0
vt 1 0.34683883190155 0
vt 1 0.84566009044647 0
vt 0.15624360740185 0.52098453044891 0
vt 0 0.50034433603287 0
vt 0 0.15434002876282 0
vt 1 0.32851791381836 0
vt 0.9093399643898 0.36223149299622 0
vt 0 0.84566009044647 0
vt 0 0.52701258659363 0
vt 1 0.15434002876282 0
vt 0.9094460606575 0.36238586902618 0
vt 0.15626323223114 0.52081704139709 0
# 24 texture coordinates

g 큐브.1_7
usemtl 재질
f 173/69/16 137/68/16 171/67/16
f 173/69/16 174/72/16 140/71/16 142/70/16
f 140/71/16 170/74/16 143/73/16
f 174/72/16 170/74/16 140/71/16
f 142/70/16 137/68/16 173/69/16
f 172/76/14 176/75/14 144/70/14 139/68/14
f 175/78/14 169/77/14 141/73/14 138/71/14
f 175/78/14 138/71/14 144/70/14 176/75/14
f 178/81/18 143/80/18 170/79/18
f 180/85/18 171/84/18 141/83/18 169/82/18
f 143/80/18 178/81/18 172/87/18 139/86/18
f 141/83/18 171/84/18 137/88/18
f 179/89/18 180/85/18 169/82/18
f 179/89/18 177/90/18 178/81/18 170/79/18
f 179/89/18 169/82/18 177/90/18
f 144/83/17 138/86/17 142/80/17 140/88/17

v -34.85544204711914 -91.75440216064453 -77.09382629394531
v -34.81217575073242 -91.75440216064453 -77.11592864990234
v -50.76363372802734 -91.75440216064453 -100
v -42.84416961669922 -91.75440216064453 -100
v -34.85544204711914 -100 -77.09382629394531
v -34.81217575073242 -100 -77.11592864990234
v -42.84416961669922 -100 -100
v -50.76363372802734 -100 -100
# 8 vertices

vn 0.82135099172592 0 -0.5704231262207
vn -0.45492288470268 0 -0.89053082466125
vn -0.94356781244278 0 0.33117932081223
vn 0 -1 -0
vn 0 -1 -0
# 5 normals

vt 0.48326241970062 1 0
vt 0.48326241970062 0.49159932136536 0
vt 1 0.49159932136536 0
vt 0 0.49159932136536 0
vt 0 0.49159932136536 0
vt 0.44937247037888 0.49159932136536 0
vt 0.44937247037888 1 0
vt 1 0.48326241970062 0
vt 0 0.55062752962112 0
# 9 texture coordinates

g 큐브.4
usemtl 재질_2
f 181/3/20 185/93/20 188/92/20 183/91/20
f 182/3/21 186/93/21 185/94/21 181/2/21
f 184/97/22 187/96/22 186/95/22 182/2/22
f 183/98/23 182/2/23 181/3/18
f 183/98/23 184/99/24 182/2/23

v -100 85.08209228515625 -8.43484973907471
v -100 85.08209228515625 2.00610971450806
v -90 85.08209228515625 -7.81476545333862
v -61.87261581420898 100 -6.02239227294922
v -61.87615203857422 90 -6.07084941864014
v -90 85.08209228515625 -0.09959527850151
v -61.87615203857422 100 -6.07084941864014
v -61.87261581420898 90 -6.02239227294922
v -100 100 -8.43484973907471
v -100 100 2.00610971450806
v -90 90 -7.81476545333862
v -90 90 -0.09959527850151
# 12 vertices

vn -0.2060518860817 0 -0.97854107618332
vn -0.2060518860817 -0.00000001958088 -0.97854107618332
vn -0.20605190098286 -0.00000003916176 -0.97854107618332
vn -0.99734783172607 0 0.07278277724981
vn -0.06188956275582 0 0.99808299541473
vn -0.0618895702064 -0 0.99808299541473
vn -0.06188957393169 -0 0.99808299541473
# 7 normals

vt 0.46740561723709 0 0
vt 0.46740561723709 0.30322420597076 0
vt 0.27805477380753 0.91979622840881 0
vt 0.27805477380753 0 0
vt 1 0.91979622840881 0
vt 1 0.30322420597076 0
vt 0.00000000000001 0.91979622840881 0
vt 0.00000000000001 0.30322420597076 0
vt 0.52210086584091 0 0
vt 0.70774430036545 0 0
vt 0.70774430036545 0.91979622840881 0
vt 0.52210086584091 0.30322420597076 0
vt 0 0.30322420597076 0
vt 0 0.91979622840881 0
vt 0 0.52210086584091 0
vt 1 0.53259438276291 0
vt 1 0.72194522619247 0
vt 0 0.70774435997009 0
# 18 texture coordinates

g 큐브.3_1
usemtl 재질_2
f 190/103/25 198/102/26 200/101/26 194/100/25
f 196/105/27 200/101/26 198/102/26 192/104/27
f 196/107/28 192/106/28 195/104/28 193/105/28
f 199/111/30 197/110/30 189/109/29 191/108/29
f 195/113/31 197/110/30 199/111/30 193/112/31
f 189/117/17 190/116/17 194/115/17 191/114/17

v -76.83708953857422 95.24853515625 -37.2191276550293
v -76.82494354248047 95.24853515625 -37.26617431640625
v -100 95.24853515625 -39.96151351928711
v -100 95.24853515625 -46.71972274780273
v -76.83708953857422 100 -37.2191276550293
v -76.82494354248047 100 -37.26617431640625
v -100 100 -46.71972274780273
v -100 100 -39.96151351928711
# 8 vertices

vn 0.11757438629866 0 -0.99306410551071
vn -0.96825283765793 0 -0.24997299909592
vn -0.37770318984985 0 0.9259267449379
vn -0.00000000186192 1 0.00000000721416
vn -0.00000000372384 1 0.00000001442833
# 5 normals

vt 1 0.29296207427979 0
vt 0.56782245635986 0.29296207427979 0
vt 0.56782245635986 0 0
vt 0.00000000000006 0.29296207427979 0
vt 0.46375700831413 0 0
vt 0.46375700831413 0.29296207427979 0
vt 0 0.29296207427979 0
vt 1 0.43217754364014 0
vt 0 0.46375703811646 0
# 9 texture coordinates

g 큐브.3_2
usemtl 재질_2
f 201/4/32 203/120/32 208/119/32 205/118/32
f 201/1/33 205/121/33 206/118/33 202/4/33
f 206/124/34 207/123/34 204/122/34 202/1/34
f 201/4/35 204/126/35 203/125/17
f 204/126/35 201/4/35 202/1/36

v 100 89.75357055664062 55.58683395385742
v 100 89.75357055664062 47.0692138671875
v 73.68119812011719 100 39.8566780090332
v 73.70029449462891 100 39.8120002746582
v 90 89.75357055664062 49.61006164550781
v 90 89.75357055664062 44.30978775024414
v 73.70029449462891 90 39.81200408935547
v 73.68119812011719 90 39.8566780090332
v 100 100 55.58683395385742
v 90 90 49.61006164550781
v 90 90 44.30978775024414
v 100 100 47.0692138671875
# 12 vertices

vn -0.26600116491318 0 0.96397268772125
vn -0.2660011947155 0.0000000919316 0.96397268772125
vn -0.26600122451782 0.00000018386319 0.96397268772125
vn 0.9195202589035 0.00000007499958 0.39304262399673
vn 0.5130290389061 0 -0.85837125778198
vn 0.51302909851074 -0.00000000738306 -0.85837119817734
vn 0.51302915811539 -0.00000001476612 -0.85837119817734
vn 0.00000000585731 1 -0.0000000137017
# 8 normals

vt 0.68669933080673 0 0
vt 0.68669933080673 0.01519417762756 0
vt 0.49448683857918 0.63176608085632 0
vt 0.49448683857918 0 0
vt 1 0.01519417762756 0
vt 1 0.63176608085632 0
vt 0.00000000000006 0.63176608085632 0
vt 0.00000000000006 0.01519417762756 0
vt 0.35225692391396 0 0
vt 0.5681164264679 0 0
vt 0.5681164264679 0.63176608085632 0
vt 0.35225692391396 0.01519417762756 0
vt 0 0.63176608085632 0
vt 0 0.01519417762756 0
vt 1 0.31330072879791 0
vt 1 0.50551319122314 0
vt 0 0.5681164264679 0
vt 0 0.35225689411163 0
# 18 texture coordinates

g 큐브.4_1
usemtl 재질_2
f 210/130/37 220/129/38 219/128/38 214/127/37
f 219/128/38 220/129/38 212/132/39 215/131/39
f 215/134/40 212/133/40 211/132/40 216/131/40
f 218/138/42 217/137/42 209/136/41 213/135/41
f 218/138/42 216/140/43 211/139/43 217/137/42
f 213/144/44 209/143/44 210/142/44 214/141/44

