# WaveFront *.obj file (generated by CINEMA 4D)

mtllib ./log(nomal).mtl

v -7.5 -7.5 95.5
v -7.5 7.5 95.5
v 7.5 -7.5 95.5
v 7.5 7.5 95.5
v 7.5 -7.5 -95.5
v 7.5 7.5 -95.5
v -7.5 -7.5 -95.5
v -7.5 7.5 -95.5
# 8 vertices

vn 0 0 1
vn 1 0 0
vn 0 0 -1
vn -1 0 0
vn 0 1 0
vn 0 -1 0
# 6 normals

vt 0 0 0
vt 0 1 0
vt 1 1 0
vt 1 0 0
# 4 texture coordinates

g 큐브.1
usemtl 재질_1
f 3/4/1 4/3/1 2/2/1 1/1/1
f 5/4/2 6/3/2 4/2/2 3/1/2
f 7/4/3 8/3/3 6/2/3 5/1/3
f 1/4/4 2/3/4 8/2/4 7/1/4
f 4/4/5 6/3/5 8/2/5 2/1/5
f 5/4/6 3/3/6 1/2/6 7/1/6

v -10 -10 95.5
v -10 10 95.5
v 10 -10 95.5
v 10 10 95.5
v 10 -10 -95.5
v 10 10 -95.5
v -10 -10 -95.5
v -10 10 -95.5
v 9.5 9.5 95.5
v 9.5 -9.5 -95.5
v -9.5 -9.5 95.5
v -9.5 9.5 -95.5
v -9.5 9.5 95.5
v 9.5 9.5 -95.5
v 9.5 -9.5 95.5
v -9.5 -9.5 -95.5
# 16 vertices

vn 0 0 0
# 1 normal

vt 0.02500000037253 0.02499997615814 0
vt 0.97500002384186 0.02499997615814 0
vt 0.02500000037253 0.97500002384186 0
vt 0.97500002384186 0.97500002384186 0
# 4 texture coordinates

g 큐브.1_1
usemtl 재질_1
f 23/6/1 19/5/1 9/1/1 11/4/1
f 10/2/1 9/1/1 19/5/1 21/7/1
f 12/3/1 10/2/1 21/7/1 17/8/1
f 17/8/1 23/6/1 11/4/1 12/3/1
f 13/4/2 14/3/2 12/2/2 11/1/2
f 20/8/3 15/4/3 16/3/3
f 15/4/3 20/8/3 24/6/3
f 14/2/3 22/7/3 20/8/3 16/3/3
f 13/1/3 15/4/3 24/6/3 18/5/3
f 13/1/3 18/5/3 22/7/3 14/2/3
f 9/4/4 10/3/4 16/2/4 15/1/4
f 12/4/5 14/3/5 16/2/5 10/1/5
f 13/4/6 11/3/6 9/2/6 15/1/6

# 0 vertex

# 0 normal

vt 0.00260416674428 0 0
vt 0.99739581346512 0 0
vt 0.99739581346512 1 0
vt 0.00260416674428 1 0
vt 0 0.99739581346512 0
vt 0 0.00260424613953 0
vt 1 0.00260424613953 0
vt 1 0.99739581346512 0
# 8 texture coordinates

g 큐브.2
usemtl 재질_1
f 17/12/4 22/11/4 18/10/4 23/9/4
f 20/12/2 21/11/2 19/10/2 24/9/2
f 22/16/6 17/15/6 21/14/6 20/13/6
f 24/14/5 19/13/5 23/16/5 18/15/5

v -15 -15 95.5
v -15 15 95.5
v 15 -15 95.5
v 15 15 95.5
v 15 -15 -95.5
v 15 15 -95.5
v -15 -15 -95.5
v -15 15 -95.5
v 14 14 95.5
v 14 -14 -95.5
v -14 -14 95.5
v -14 14 -95.5
v -14 14 95.5
v 14 14 -95.5
v 14 -14 95.5
v -14 -14 -95.5
# 16 vertices

# 0 normal

vt 0.0333333350718 0.96666669845581 0
vt 0.0333333350718 0.03333342075348 0
vt 0.96666663885117 0.03333342075348 0
vt 0.96666663885117 0.96666669845581 0
# 4 texture coordinates

g 큐브.1_2
usemtl 재질_1
f 26/2/1 25/1/1 35/18/1 37/17/1
f 39/19/1 35/18/1 25/1/1 27/4/1
f 28/3/1 26/2/1 37/17/1 33/20/1
f 33/20/1 39/19/1 27/4/1 28/3/1
f 29/4/2 30/3/2 28/2/2 27/1/2
f 31/4/3 36/20/3 40/19/3
f 36/20/3 31/4/3 32/3/3
f 29/1/3 31/4/3 40/19/3 34/18/3
f 38/17/3 36/20/3 32/3/3 30/2/3
f 30/2/3 29/1/3 34/18/3 38/17/3
f 25/4/4 26/3/4 32/2/4 31/1/4
f 28/4/5 30/3/5 32/2/5 26/1/5
f 29/4/6 27/3/6 25/2/6 31/1/6

# 0 vertex

# 0 normal

# 0 texture coordinate

g 큐브.2_1
usemtl 재질_1
f 33/12/4 38/11/4 34/10/4 39/9/4
f 36/12/2 37/11/2 35/10/2 40/9/2
f 38/16/6 33/15/6 37/14/6 36/13/6
f 40/14/5 35/13/5 39/16/5 34/15/5

v -20 -20 95.5
v -20 20 95.5
v 20 -20 95.5
v 20 20 95.5
v 20 -20 -95.5
v 20 20 -95.5
v -20 -20 -95.5
v -20 20 -95.5
v 18.5 18.5 95.5
v 18.5 -18.5 -95.5
v -18.5 -18.5 95.5
v -18.5 18.5 -95.5
v -18.5 18.5 95.5
v 18.5 18.5 -95.5
v 18.5 -18.5 95.5
v -18.5 -18.5 -95.5
# 16 vertices

# 0 normal

vt 0.03750000149012 0.03750002384186 0
vt 0.96249997615814 0.03750002384186 0
vt 0.03750000149012 0.96249997615814 0
vt 0.96249997615814 0.96249997615814 0
# 4 texture coordinates

g 큐브.1_3
usemtl 재질_1
f 55/22/1 51/21/1 41/1/1 43/4/1
f 42/2/1 41/1/1 51/21/1 53/23/1
f 49/24/1 44/3/1 42/2/1 53/23/1
f 44/3/1 49/24/1 55/22/1 43/4/1
f 45/4/2 46/3/2 44/2/2 43/1/2
f 52/24/3 47/4/3 48/3/3
f 47/4/3 52/24/3 56/22/3
f 46/2/3 54/23/3 52/24/3 48/3/3
f 45/1/3 47/4/3 56/22/3 50/21/3
f 50/21/3 54/23/3 46/2/3 45/1/3
f 41/4/4 42/3/4 48/2/4 47/1/4
f 44/4/5 46/3/5 48/2/5 42/1/5
f 45/4/6 43/3/6 41/2/6 47/1/6

# 0 vertex

# 0 normal

# 0 texture coordinate

g 큐브.2_2
usemtl 재질_1
f 49/12/4 54/11/4 50/10/4 55/9/4
f 52/12/2 53/11/2 51/10/2 56/9/2
f 54/16/6 49/15/6 53/14/6 52/13/6
f 56/14/5 51/13/5 55/16/5 50/15/5

v -30 -30 95.5
v -30 30 95.5
v 30 -30 95.5
v 30 30 95.5
v 30 -30 -95.5
v 30 30 -95.5
v -30 -30 -95.5
v -30 30 -95.5
v 28.5 28.5 95.5
v 28.5 -28.5 -95.5
v -28.5 -28.5 95.5
v -28.5 28.5 -95.5
v -28.5 28.5 95.5
v 28.5 28.5 -95.5
v 28.5 -28.5 95.5
v -28.5 -28.5 -95.5
# 16 vertices

# 0 normal

# 0 texture coordinate

g 큐브.1_4
usemtl 재질_1
f 59/4/1 71/6/1 67/5/1 57/1/1
f 58/2/1 57/1/1 67/5/1 69/7/1
f 60/3/1 58/2/1 69/7/1 65/8/1
f 65/8/1 71/6/1 59/4/1 60/3/1
f 61/4/2 62/3/2 60/2/2 59/1/2
f 68/8/3 63/4/3 64/3/3
f 63/4/3 68/8/3 72/6/3
f 61/1/3 63/4/3 72/6/3 66/5/3
f 70/7/3 68/8/3 64/3/3 62/2/3
f 61/1/3 66/5/3 70/7/3 62/2/3
f 57/4/4 58/3/4 64/2/4 63/1/4
f 60/4/5 62/3/5 64/2/5 58/1/5
f 61/4/6 59/3/6 57/2/6 63/1/6

# 0 vertex

# 0 normal

# 0 texture coordinate

g 큐브.2_3
usemtl 재질_1
f 65/12/4 70/11/4 66/10/4 71/9/4
f 68/12/2 69/11/2 67/10/2 72/9/2
f 70/16/6 65/15/6 69/14/6 68/13/6
f 72/14/5 67/13/5 71/16/5 66/15/5

v -50 -50 95.5
v -50 50 95.5
v 50 -50 95.5
v 50 50 95.5
v 50 -50 -95.5
v 50 50 -95.5
v -50 -50 -95.5
v -50 50 -95.5
v 47.5 47.5 95.5
v 47.5 -47.5 -95.5
v -47.5 -47.5 95.5
v -47.5 47.5 -95.5
v -47.5 47.5 95.5
v 47.5 47.5 -95.5
v 47.5 -47.5 95.5
v -47.5 -47.5 -95.5
# 16 vertices

# 0 normal

# 0 texture coordinate

g 큐브.1_5
usemtl 재질_1
f 75/4/1 87/6/1 83/5/1 73/1/1
f 85/7/1 74/2/1 73/1/1 83/5/1
f 81/8/1 76/3/1 74/2/1 85/7/1
f 81/8/1 87/6/1 75/4/1 76/3/1
f 77/4/2 78/3/2 76/2/2 75/1/2
f 79/4/3 84/8/3 88/6/3
f 84/8/3 79/4/3 80/3/3
f 78/2/3 86/7/3 84/8/3 80/3/3
f 82/5/3 77/1/3 79/4/3 88/6/3
f 77/1/3 82/5/3 86/7/3 78/2/3
f 73/4/4 74/3/4 80/2/4 79/1/4
f 76/4/5 78/3/5 80/2/5 74/1/5
f 77/4/6 75/3/6 73/2/6 79/1/6

# 0 vertex

# 0 normal

# 0 texture coordinate

g 큐브.2_4
usemtl 재질_1
f 81/12/4 86/11/4 82/10/4 87/9/4
f 84/12/2 85/11/2 83/10/2 88/9/2
f 86/16/6 81/15/6 85/14/6 84/13/6
f 88/14/5 83/13/5 87/16/5 82/15/5

v -70 -70 95.5
v -70 70 95.5
v 70 -70 95.5
v 70 70 95.5
v 70 -70 -95.5
v 70 70 -95.5
v -70 -70 -95.5
v -70 70 -95.5
v 67.5 67.5 95.5
v 67.5 -67.5 -95.5
v -67.5 -67.5 95.5
v -67.5 67.5 -95.5
v -67.5 67.5 95.5
v 67.5 67.5 -95.5
v 67.5 -67.5 95.5
v -67.5 -67.5 -95.5
# 16 vertices

# 0 normal

vt 0.01785714365542 0.01785719394684 0
vt 0.98214286565781 0.01785719394684 0
vt 0.01785714365542 0.98214286565781 0
vt 0.98214286565781 0.98214286565781 0
# 4 texture coordinates

g 큐브.1_6
usemtl 재질_1
f 91/4/1 103/26/1 99/25/1 89/1/1
f 90/2/1 89/1/1 99/25/1 101/27/1
f 92/3/1 90/2/1 101/27/1 97/28/1
f 97/28/1 103/26/1 91/4/1 92/3/1
f 93/4/2 94/3/2 92/2/2 91/1/2
f 95/4/3 100/28/3 104/26/3
f 100/28/3 95/4/3 96/3/3
f 102/27/3 100/28/3 96/3/3 94/2/3
f 98/25/3 93/1/3 95/4/3 104/26/3
f 93/1/3 98/25/3 102/27/3 94/2/3
f 89/4/4 90/3/4 96/2/4 95/1/4
f 92/4/5 94/3/5 96/2/5 90/1/5
f 93/4/6 91/3/6 89/2/6 95/1/6

# 0 vertex

# 0 normal

# 0 texture coordinate

g 큐브.2_5
usemtl 재질_1
f 97/12/4 102/11/4 98/10/4 103/9/4
f 100/12/2 101/11/2 99/10/2 104/9/2
f 102/16/6 97/15/6 101/14/6 100/13/6
f 104/14/5 99/13/5 103/16/5 98/15/5

v -90 -90 95
v -90 90 95
v 90 -90 95
v 90 90 95
v 90 -90 -95
v 90 90 -95
v -90 -90 -95
v -90 90 -95
# 8 vertices

# 0 normal

# 0 texture coordinate

g 큐브
usemtl 재질.1
f 107/4/1 108/3/1 106/2/1 105/1/1
f 109/4/2 110/3/2 108/2/2 107/1/2
f 111/4/3 112/3/3 110/2/3 109/1/3
f 105/4/4 106/3/4 112/2/4 111/1/4
f 108/4/5 110/3/5 112/2/5 106/1/5
f 109/4/6 107/3/6 105/2/6 111/1/6

v -100 -100 100
v -100 100 100
v 100 -100 100
v 100 100 100
v 100 -100 -100
v 100 100 -100
v -100 -100 -100
v -100 100 -100
v 90 90 100
v -90 -90 100
v -90 90 -100
v 90 -90 -100
v -90 90 100
v 90 -90 100
v 90 90 -100
v -90 -90 -100
# 16 vertices

# 0 normal

vt 0.05000000074506 0.94999998807907 0
vt 0.05000000074506 0.05000007152557 0
vt 0.94999998807907 0.05000007152557 0
vt 0.94999998807907 0.94999998807907 0
# 4 texture coordinates

g 큐브_1
usemtl 재질
f 114/2/1 113/1/1 122/30/1 125/29/1
f 126/31/1 122/30/1 113/1/1 115/4/1
f 116/3/1 114/2/1 125/29/1 121/32/1
f 121/32/1 126/31/1 115/4/1 116/3/1
f 117/4/2 118/3/2 116/2/2 115/1/2
f 119/4/3 123/32/3 128/31/3
f 123/32/3 119/4/3 120/3/3
f 118/2/3 127/29/3 123/32/3 120/3/3
f 117/1/3 119/4/3 128/31/3 124/30/3
f 117/1/3 124/30/3 127/29/3 118/2/3
f 113/4/4 114/3/4 120/2/4 119/1/4
f 116/4/5 118/3/5 120/2/5 114/1/5
f 117/4/6 115/3/6 113/2/6 119/1/6

# 0 vertex

# 0 normal

vt 0.15433995425701 0 0
vt 0.84566003084183 0 0
vt 0.84566003084183 1 0
vt 0.15433995425701 1 0
vt 0 0.84566009044647 0
vt 0 0.15434002876282 0
vt 1 0.15434002876282 0
vt 1 0.84566009044647 0
# 8 texture coordinates

g 큐브.1_7
usemtl 재질
f 121/36/4 127/35/4 124/34/4 126/33/4
f 123/36/2 125/35/2 122/34/2 128/33/2
f 127/40/6 121/39/6 125/38/6 123/37/6
f 128/38/5 122/37/5 126/40/5 124/39/5

