# WaveFront *.obj file (generated by CINEMA 4D)

mtllib ./arrow.mtl

v -55.83021545410156 -14.31138515472412 0.02640190534294
v -55.83021545410156 14.31138515472412 0.02640190534294
v 0 -14.31138515472412 20.00933265686035
v 0 14.31138515472412 20.00933265686035
v 65.03781890869141 -14.31138515472412 20.00933265686035
v 65.03781890869141 14.31138515472412 20.00933265686035
v 65.03781890869141 -14.31138515472412 -20.00933265686035
v 65.03781890869141 14.31138515472412 -20.00933265686035
v 0 -14.31138515472412 -20.00933265686035
v 0 14.31138515472412 -20.00933265686035
v -55.83021545410156 -14.31138515472412 -0.02640190534294
v -55.83021545410156 14.31138515472412 -0.02640190534294
v -55.83021545410156 -14.31138515472412 0.06140417233109
v -55.83021545410156 14.31138515472412 0.06140417233109
v 0 -14.31138515472412 46.53666305541992
v 0 14.31138515472412 46.53666305541992
v -0 -14.31138515472412 -46.53666305541992
v -0 14.31138515472412 -46.53666305541992
v -55.83021545410156 -14.31138515472412 -0.06140417233109
v -55.83021545410156 14.31138515472412 -0.06140417233109
# 20 vertices

vn -0.63977873325348 0 0.76855915784836
vn 0 0 1
vn 1 0 0
vn 0 0 -1
vn -0.63977873325348 0 -0.76855915784836
vn -1 0 0
vn 0 1 0
vn 0 -1 0
vn 1 0 -0
vn 1 0 -0
# 10 normals

vt 0 0 0
vt 0 1 0
vt 0.5 1 0
vt 0.5 0 0
vt 1 1 0
vt 1 0 0
# 6 texture coordinates

g 큐브
usemtl 재질
f 15/4/1 16/3/1 14/2/1 13/1/1
f 5/6/2 6/5/2 4/3/2 3/4/2
f 7/6/3 8/5/3 6/2/3 5/1/3
f 9/4/4 10/3/4 8/2/4 7/1/4
f 19/6/5 20/5/5 18/3/5 17/4/5
f 1/6/6 2/5/6 12/2/6 11/1/6
f 4/4/7 10/3/7 12/2/7 2/1/7
f 6/6/7 8/5/7 10/3/7 4/4/7
f 9/4/8 3/3/8 1/2/8 11/1/8
f 7/6/8 5/5/8 3/3/8 9/4/8
f 3/4/8 15/4/8 13/1/8 1/1/8
f 4/3/9 16/3/9 15/4/9 3/4/9
f 2/2/7 14/2/7 16/3/7 4/3/7
f 1/1/6 13/1/6 14/2/6 2/2/6
f 11/6/8 19/6/8 17/4/8 9/4/8
f 12/5/6 20/5/6 19/6/6 11/6/6
f 10/3/7 18/3/7 20/5/7 12/5/7
f 9/4/10 17/4/10 18/3/10 10/3/10

