# WaveFront *.obj file (generated by CINEMA 4D)

mtllib ./dog.mtl

v -12.01337051391602 -59.53924179077148 -141.34300231933594
v -12.01337051391602 -52.04238891601562 -134.01077270507812
v 12.01337051391602 -59.53924179077148 -141.34300231933594
v 12.01337051391602 -52.04238891601562 -134.01077270507812
v 12.01337051391602 -29.0461368560791 -172.52072143554688
v 12.01337051391602 -21.54928588867188 -165.18849182128906
v -12.01337051391602 -29.0461368560791 -172.52072143554688
v -12.01337051391602 -21.54928588867188 -165.18849182128906
# 8 vertices

vn 0 -0.69921386241913 0.71491259336472
vn 1 0 0
vn 0 0.69921392202377 -0.71491247415543
vn -1 0 0
vn 0 0.71491247415543 0.69921392202377
vn 0 -0.71491247415543 -0.69921392202377
# 6 normals

vt 0 0 0
vt 0 1 0
vt 1 1 0
vt 1 0 0
# 4 texture coordinates

g 큐브.4
usemtl 재질.1
f 3/4/1 4/3/1 2/2/1 1/1/1
f 5/4/2 6/3/2 4/2/2 3/1/2
f 7/4/3 8/3/3 6/2/3 5/1/3
f 1/4/4 2/3/4 8/2/4 7/1/4
f 4/4/5 6/3/5 8/2/5 2/1/5
f 5/4/6 3/3/6 1/2/6 7/1/6

v -19.60519790649414 -60.07655334472656 -61.91099548339844
v -19.60519790649414 -49.59016418457031 -61.91099548339844
v 19.60519790649414 -60.07655334472656 -61.91099548339844
v 19.60519790649414 -49.59016418457031 -61.91099548339844
v 19.60519790649414 -60.07655334472656 -141.33863830566406
v 19.60519790649414 -49.59016418457031 -141.33863830566406
v -19.60519790649414 -60.07655334472656 -141.33863830566406
v -19.60519790649414 -49.59016418457031 -141.33863830566406
# 8 vertices

vn 0 0 1
vn 0 0 -1
vn 0 1 0
vn 0 -1 0
# 4 normals

# 0 texture coordinate

g 큐브.2
usemtl 재질.1
f 11/4/7 12/3/7 10/2/7 9/1/7
f 13/4/2 14/3/2 12/2/2 11/1/2
f 15/4/8 16/3/8 14/2/8 13/1/8
f 9/4/4 10/3/4 16/2/4 15/1/4
f 12/4/9 14/3/9 16/2/9 10/1/9
f 13/4/10 11/3/10 9/2/10 15/1/10

v -44.70278930664062 25.30556488037109 65.11593627929688
v -44.70278930664062 42.76343154907227 65.11593627929688
v -27.24492263793945 25.30556488037109 65.11593627929688
v -27.24492263793945 42.76343154907227 65.11593627929688
v -27.24492263793945 25.30556488037109 47.65807342529297
v -27.24492263793945 42.76343154907227 47.65807342529297
v -44.70278930664062 25.30556488037109 47.65807342529297
v -44.70278930664062 42.76343154907227 47.65807342529297
v 44.70278930664062 25.30556488037109 65.11593627929688
v 44.70278930664062 42.76343154907227 65.11593627929688
v 27.24492263793945 25.30556488037109 65.11593627929688
v 27.24492263793945 42.76343154907227 65.11593627929688
v 27.24492263793945 25.30556488037109 47.65807342529297
v 27.24492263793945 42.76343154907227 47.65807342529297
v 44.70278930664062 25.30556488037109 47.65807342529297
v 44.70278930664062 42.76343154907227 47.65807342529297
# 16 vertices

# 0 normal

# 0 texture coordinate

g 큐브.5
usemtl 재질
f 19/4/7 20/3/7 18/2/7 17/1/7
f 21/4/2 22/3/2 20/2/2 19/1/2
f 23/4/8 24/3/8 22/2/8 21/1/8
f 17/4/4 18/3/4 24/2/4 23/1/4
f 20/4/9 22/3/9 24/2/9 18/1/9
f 21/4/10 19/3/10 17/2/10 23/1/10
f 26/2/7 28/3/7 27/4/7 25/1/7
f 28/2/4 30/3/4 29/4/4 27/1/4
f 30/2/8 32/3/8 31/4/8 29/1/8
f 32/2/2 26/3/2 25/4/2 31/1/2
f 32/2/9 30/3/9 28/4/9 26/1/9
f 25/2/10 27/3/10 29/4/10 31/1/10

v -62.55281448364258 19.07179069519043 65.02696990966797
v -62.55281448364258 66.49363708496094 65.02696990966797
v -23.66791725158691 19.07179069519043 65.02696990966797
v -23.66791725158691 66.49363708496094 65.02696990966797
v -23.66791725158691 19.07179069519043 62.36140441894531
v -23.66791725158691 66.49363708496094 62.36140441894531
v -62.55281448364258 19.07179069519043 62.36140441894531
v -62.55281448364258 66.49363708496094 62.36140441894531
v 62.55281448364258 19.07179069519043 65.02696990966797
v 62.55281448364258 66.49363708496094 65.02696990966797
v 23.66791725158691 19.07179069519043 65.02696990966797
v 23.66791725158691 66.49363708496094 65.02696990966797
v 23.66791725158691 19.07179069519043 62.36140441894531
v 23.66791725158691 66.49363708496094 62.36140441894531
v 62.55281448364258 19.07179069519043 62.36140441894531
v 62.55281448364258 66.49363708496094 62.36140441894531
# 16 vertices

# 0 normal

# 0 texture coordinate

g 큐브.4_1
usemtl 재질.2
f 35/4/7 36/3/7 34/2/7 33/1/7
f 37/4/2 38/3/2 36/2/2 35/1/2
f 39/4/8 40/3/8 38/2/8 37/1/8
f 33/4/4 34/3/4 40/2/4 39/1/4
f 36/4/9 38/3/9 40/2/9 34/1/9
f 37/4/10 35/3/10 33/2/10 39/1/10
f 42/2/7 44/3/7 43/4/7 41/1/7
f 44/2/4 46/3/4 45/4/4 43/1/4
f 46/2/8 48/3/8 47/4/8 45/1/8
f 48/2/2 42/3/2 41/4/2 47/1/2
f 48/2/9 46/3/9 44/4/9 42/1/9
f 41/2/10 43/3/10 45/4/10 47/1/10

v -110.71754455566406 -13.09754753112793 37.36213684082031
v -94.0870361328125 96.92057800292969 37.36213684082031
v -98.26218414306641 -14.98031997680664 37.36213684082031
v -81.63167572021484 95.03780364990234 37.36213684082031
v -98.26218414306641 -14.98031997680664 -80.86540222167969
v -81.63167572021484 95.03780364990234 -80.86540222167969
v -110.71754455566406 -13.09754753112793 -80.86540222167969
v -94.0870361328125 96.92057800292969 -80.86540222167969
v 110.71754455566406 -13.09754753112793 37.36213684082031
v 94.0870361328125 96.92057800292969 37.36213684082031
v 98.26218414306641 -14.98031997680664 37.36213684082031
v 81.63167572021484 95.03780364990234 37.36213684082031
v 98.26218414306641 -14.98031997680664 -80.86540222167969
v 81.63167572021484 95.03780364990234 -80.86540222167969
v 110.71754455566406 -13.09754753112793 -80.86540222167969
v 94.0870361328125 96.92057800292969 -80.86540222167969
# 16 vertices

vn 0.98876720666885 -0.14946356415749 0
vn -0.98876720666885 0.14946356415749 0
vn 0.14946380257607 0.98876720666885 0
vn -0.14946365356445 -0.98876720666885 0
vn -0.98876720666885 -0.14946356415749 0
vn 0.98876720666885 0.14946356415749 0
vn -0.14946380257607 0.98876720666885 0
vn 0.14946365356445 -0.98876720666885 0
# 8 normals

# 0 texture coordinate

g 큐브.2_1
usemtl 재질.1
f 51/4/7 52/3/7 50/2/7 49/1/7
f 53/4/11 54/3/11 52/2/11 51/1/11
f 55/4/8 56/3/8 54/2/8 53/1/8
f 49/4/12 50/3/12 56/2/12 55/1/12
f 52/4/13 54/3/13 56/2/13 50/1/13
f 53/4/14 51/3/14 49/2/14 55/1/14
f 58/2/7 60/3/7 59/4/7 57/1/7
f 60/2/15 62/3/15 61/4/15 59/1/15
f 62/2/8 64/3/8 63/4/8 61/1/8
f 64/2/16 58/3/16 57/4/16 63/1/16
f 64/2/17 62/3/17 60/4/17 58/1/17
f 57/2/18 59/3/18 61/4/18 63/1/18

v -16.97554779052734 -90.92059326171875 65.67131042480469
v -16.97554779052734 -48.56077194213867 65.67131042480469
v 16.97554779052734 -90.92059326171875 65.67131042480469
v 16.97554779052734 -48.56077194213867 65.67131042480469
v 16.97554779052734 -90.92059326171875 59.81699371337891
v 16.97554779052734 -48.56077194213867 59.81699371337891
v -16.97554779052734 -90.92059326171875 59.81699371337891
v -16.97554779052734 -48.56077194213867 59.81699371337891
# 8 vertices

# 0 normal

# 0 texture coordinate

g 큐브.6
usemtl 재질.3
f 67/4/7 68/3/7 66/2/7 65/1/7
f 69/4/2 70/3/2 68/2/2 67/1/2
f 71/4/8 72/3/8 70/2/8 69/1/8
f 65/4/4 66/3/4 72/2/4 71/1/4
f 68/4/9 70/3/9 72/2/9 66/1/9
f 69/4/10 67/3/10 65/2/10 71/1/10

v -13.01180076599121 -25.33683395385742 102.40476226806641
v -13.01180076599121 0.68676608800888 102.40476226806641
v 13.01180076599121 -25.33683395385742 102.40476226806641
v 13.01180076599121 0.68676608800888 102.40476226806641
v 13.01180076599121 -25.33683395385742 76.38116455078125
v 13.01180076599121 0.68676608800888 76.38116455078125
v -13.01180076599121 -25.33683395385742 76.38116455078125
v -13.01180076599121 0.68676608800888 76.38116455078125
# 8 vertices

# 0 normal

# 0 texture coordinate

g 큐브.3
usemtl 재질
f 75/4/7 76/3/7 74/2/7 73/1/7
f 77/4/2 78/3/2 76/2/2 75/1/2
f 79/4/8 80/3/8 78/2/8 77/1/8
f 73/4/4 74/3/4 80/2/4 79/1/4
f 76/4/9 78/3/9 80/2/9 74/1/9
f 77/4/10 75/3/10 73/2/10 79/1/10

v -48.45552062988281 -55.44171142578125 98.34529113769531
v -48.45552062988281 8.23165225982666 98.34529113769531
v 48.45552062988281 -55.44171142578125 98.34529113769531
v 48.45552062988281 8.23165225982666 98.34529113769531
v 48.45552062988281 -55.44171142578125 12.08419227600098
v 48.45552062988281 8.23165225982666 12.08419227600098
v -48.45552062988281 -55.44171142578125 12.08419227600098
v -48.45552062988281 8.23165225982666 12.08419227600098
# 8 vertices

# 0 normal

# 0 texture coordinate

g 큐브.1
usemtl 재질.1
f 83/4/7 84/3/7 82/2/7 81/1/7
f 85/4/2 86/3/2 84/2/2 83/1/2
f 87/4/8 88/3/8 86/2/8 85/1/8
f 81/4/4 82/3/4 88/2/4 87/1/4
f 84/4/9 86/3/9 88/2/9 82/1/9
f 85/4/10 83/3/10 81/2/10 87/1/10

v -87.8431396484375 -100 61.90849685668945
v -87.8431396484375 100 61.90849685668945
v 87.8431396484375 -100 61.90849685668945
v 87.8431396484375 100 61.90849685668945
v 87.8431396484375 -100 -98.71895599365234
v 87.8431396484375 100 -98.71895599365234
v -87.8431396484375 -100 -98.71895599365234
v -87.8431396484375 100 -98.71895599365234
# 8 vertices

# 0 normal

# 0 texture coordinate

g 큐브
usemtl 재질.1_1
f 91/4/7 92/3/7 90/2/7 89/1/7
f 93/4/2 94/3/2 92/2/2 91/1/2
f 95/4/8 96/3/8 94/2/8 93/1/8
f 89/4/4 90/3/4 96/2/4 95/1/4
f 92/4/9 94/3/9 96/2/9 90/1/9
f 93/4/10 91/3/10 89/2/10 95/1/10

